<svg width="32" height="32" viewBox="0 0 32 32" fill="none" xmlns="http://www.w3.org/2000/svg">
<g clip-path="url(#clip0_7_247)">
<path d="M0.997559 16C0.997559 13.9375 1.39339 11.9896 2.18506 10.1562C2.95589 8.34375 4.01839 6.76042 5.37256 5.40625C6.74756 4.03125 8.34131 2.95833 10.1538 2.1875C11.9871 1.39583 13.9351 1 15.9976 1C18.0809 1 20.0288 1.39583 21.8413 2.1875C23.6538 2.95833 25.2371 4.03125 26.5913 5.40625C27.9663 6.76042 29.0496 8.34375 29.8413 10.1562C30.6121 11.9896 30.9976 13.9375 30.9976 16C30.9976 18.0833 30.6121 20.0312 29.8413 21.8438C29.0496 23.6562 27.9663 25.25 26.5913 26.625C25.2371 27.9792 23.6538 29.0521 21.8413 29.8438C20.0288 30.6146 18.0809 31 15.9976 31C13.9351 31 11.9871 30.6146 10.1538 29.8438C8.34131 29.0521 6.74756 27.9792 5.37256 26.625C4.01839 25.25 2.95589 23.6562 2.18506 21.8438C1.39339 20.0312 0.997559 18.0833 0.997559 16ZM15.9976 3C14.2059 3 12.5184 3.34375 10.9351 4.03125C9.35173 4.69792 7.96631 5.625 6.77881 6.8125C5.61214 7.97917 4.69548 9.35417 4.02881 10.9375C3.34131 12.5208 2.99756 14.2083 2.99756 16C2.99756 17.7917 3.34131 19.4792 4.02881 21.0625C4.69548 22.6458 5.61214 24.0312 6.77881 25.2188C7.96631 26.3854 9.35173 27.3125 10.9351 28C12.5184 28.6667 14.2059 29 15.9976 29C17.7892 29 19.4767 28.6667 21.0601 28C22.6434 27.3125 24.0184 26.3854 25.1851 25.2188C26.3726 24.0312 27.3101 22.6458 27.9976 21.0625C28.6642 19.4792 28.9976 17.7917 28.9976 16C28.9976 14.2083 28.6642 12.5208 27.9976 10.9375C27.3101 9.35417 26.3726 7.97917 25.1851 6.8125C24.0184 5.625 22.6434 4.69792 21.0601 4.03125C19.4767 3.34375 17.7892 3 15.9976 3ZM15.9976 10C16.6851 10 17.2684 10.25 17.7476 10.75C18.2476 11.2292 18.4976 11.8125 18.4976 12.5C18.4976 13.1875 18.2476 13.7812 17.7476 14.2812C17.2684 14.7604 16.6851 15 15.9976 15C15.3101 15 14.7163 14.7604 14.2163 14.2812C13.7371 13.7812 13.4976 13.1875 13.4976 12.5C13.4976 11.8125 13.7371 11.2292 14.2163 10.75C14.7163 10.25 15.3101 10 15.9976 10ZM19.3101 15.5312C19.6851 15.1354 19.9767 14.6771 20.1851 14.1562C20.3934 13.6354 20.4976 13.0833 20.4976 12.5C20.4976 11.25 20.0601 10.1875 19.1851 9.3125C18.3101 8.4375 17.2476 8 15.9976 8C14.7476 8 13.6851 8.4375 12.8101 9.3125C11.9351 10.1875 11.4976 11.25 11.4976 12.5C11.4976 13.0833 11.6017 13.6354 11.8101 14.1562C12.0184 14.6771 12.2996 15.1354 12.6538 15.5312C11.9663 15.8854 11.4038 16.3958 10.9663 17.0625C10.5496 17.7083 10.3413 18.4479 10.3413 19.2812V21.9688C10.3413 22.1562 10.3934 22.3333 10.4976 22.5C10.6017 22.6667 10.7267 22.7917 10.8726 22.875H10.9038C11.2371 23.0417 11.5601 23.1979 11.8726 23.3438C12.2059 23.4896 12.5705 23.6146 12.9663 23.7188C13.3413 23.8229 13.7684 23.8958 14.2476 23.9375C14.7267 23.9792 15.2788 24 15.9038 24C16.5496 24 17.1121 23.9792 17.5913 23.9375C18.0705 23.875 18.5184 23.7917 18.9351 23.6875C19.3309 23.5625 19.6955 23.4271 20.0288 23.2812C20.383 23.1354 20.7267 22.9896 21.0601 22.8438L21.0913 22.8125C21.258 22.7292 21.3934 22.6146 21.4976 22.4688C21.6017 22.3021 21.6538 22.1146 21.6538 21.9062V19.25C21.633 18.4583 21.4038 17.7396 20.9663 17.0938C20.5496 16.4271 20.008 15.9167 19.3413 15.5625L19.3101 15.5312ZM14.8101 17H17.1226C17.8309 17 18.4246 17.2292 18.9038 17.6875C19.383 18.1458 19.633 18.6875 19.6538 19.3125V21.2812C19.4455 21.3854 19.2371 21.4792 19.0288 21.5625C18.8413 21.625 18.633 21.6875 18.4038 21.75C18.1121 21.8333 17.7684 21.8958 17.3726 21.9375C16.9767 21.9792 16.4871 22 15.9038 22C15.3205 22 14.8309 21.9792 14.4351 21.9375C14.0601 21.8958 13.7371 21.8438 13.4663 21.7812C13.2371 21.7188 13.0288 21.6562 12.8413 21.5938C12.6538 21.5104 12.4767 21.4271 12.3101 21.3438H12.3413V19.2812C12.3413 18.6771 12.5705 18.1458 13.0288 17.6875C13.508 17.2292 14.1017 17 14.8101 17Z" fill="white"/>
</g>
<defs>
<clipPath id="clip0_7_247">
<rect width="32" height="32" fill="white"/>
</clipPath>
</defs>
</svg>
